<mxfile host="65bd71144e">
    <diagram id="7vO1VsaT6Dg0rjVC6jv2" name="Page-1">
        <mxGraphModel dx="619" dy="1701" grid="1" gridSize="10" guides="1" tooltips="1" connect="1" arrows="1" fold="1" page="1" pageScale="1" pageWidth="827" pageHeight="1169" math="0" shadow="0">
            <root>
                <mxCell id="0"/>
                <mxCell id="1" parent="0"/>
                <mxCell id="89" style="edgeStyle=none;html=1;exitX=0.5;exitY=0;exitDx=0;exitDy=0;dashed=1;endArrow=classic;endFill=1;" parent="1" source="10" edge="1">
                    <mxGeometry relative="1" as="geometry">
                        <mxPoint x="460" y="-310" as="targetPoint"/>
                        <Array as="points">
                            <mxPoint x="400" y="-310"/>
                        </Array>
                    </mxGeometry>
                </mxCell>
                <mxCell id="10" value="&lt;b&gt;Game&lt;/b&gt;" style="swimlane;fontStyle=0;align=center;verticalAlign=top;childLayout=stackLayout;horizontal=1;startSize=30;horizontalStack=0;resizeParent=1;resizeParentMax=0;resizeLast=0;collapsible=0;marginBottom=0;html=1;" parent="1" vertex="1">
                    <mxGeometry x="279" y="-74" width="240" height="520" as="geometry"/>
                </mxCell>
                <mxCell id="21" value="&lt;div style=&quot;&quot;&gt;&lt;br&gt;&lt;/div&gt;&lt;div style=&quot;&quot;&gt;&lt;span style=&quot;background-color: initial;&quot;&gt;- gameboard[][]: Ball&lt;br&gt;&lt;/span&gt;&lt;/div&gt;&lt;div style=&quot;&quot;&gt;&lt;span style=&quot;background-color: initial;&quot;&gt;- path: pair&amp;lt;int, int&amp;gt;&lt;/span&gt;&lt;/div&gt;&lt;div style=&quot;&quot;&gt;&lt;span style=&quot;background-color: initial;&quot;&gt;- shortestPath: pair&amp;lt;int, int&amp;gt;&lt;/span&gt;&lt;/div&gt;&lt;div style=&quot;&quot;&gt;&lt;span style=&quot;background-color: initial;&quot;&gt;- visited: pair&amp;lt;int, int&amp;gt;&lt;/span&gt;&lt;/div&gt;&lt;div style=&quot;&quot;&gt;&lt;span style=&quot;background-color: initial;&quot;&gt;- (const) ROWS: int&lt;/span&gt;&lt;/div&gt;&lt;div style=&quot;&quot;&gt;&lt;span style=&quot;background-color: initial;&quot;&gt;- (const) COLS: int&lt;/span&gt;&lt;/div&gt;&lt;div style=&quot;&quot;&gt;&lt;span style=&quot;background-color: initial;&quot;&gt;- score: int&lt;/span&gt;&lt;/div&gt;&lt;div style=&quot;&quot;&gt;&lt;span style=&quot;background-color: initial;&quot;&gt;- ballX: int&lt;/span&gt;&lt;/div&gt;&lt;div style=&quot;&quot;&gt;&lt;span style=&quot;background-color: initial;&quot;&gt;- ballY: int&lt;/span&gt;&lt;/div&gt;&lt;div style=&quot;&quot;&gt;&lt;span style=&quot;background-color: initial;&quot;&gt;- targetX: int&lt;/span&gt;&lt;/div&gt;&lt;div style=&quot;&quot;&gt;&lt;span style=&quot;background-color: initial;&quot;&gt;- targetY: int&lt;/span&gt;&lt;/div&gt;&lt;div style=&quot;&quot;&gt;&lt;span style=&quot;background-color: initial;&quot;&gt;- BALL_PROBABILITY: float&lt;/span&gt;&lt;/div&gt;&lt;div style=&quot;&quot;&gt;&lt;span style=&quot;background-color: initial;&quot;&gt;- TINY_BALL: int&lt;/span&gt;&lt;/div&gt;&lt;div style=&quot;&quot;&gt;&lt;span style=&quot;background-color: initial;&quot;&gt;- ballSelected: bool&lt;/span&gt;&lt;/div&gt;&lt;div style=&quot;&quot;&gt;&lt;span style=&quot;background-color: initial;&quot;&gt;- currentGameState: (enum)GameState&lt;/span&gt;&lt;/div&gt;" style="whiteSpace=wrap;html=1;align=left;" parent="10" vertex="1">
                    <mxGeometry y="30" width="240" height="260" as="geometry"/>
                </mxCell>
                <mxCell id="23" value="&lt;div style=&quot;&quot;&gt;&lt;br&gt;&lt;/div&gt;&lt;div style=&quot;&quot;&gt;+ setUpGame(): void&lt;/div&gt;&lt;div style=&quot;&quot;&gt;+ startGame(): void&lt;/div&gt;&lt;div style=&quot;&quot;&gt;&lt;span style=&quot;background-color: initial;&quot;&gt;+ initializeGameBoard(): void&lt;/span&gt;&lt;/div&gt;&lt;div style=&quot;&quot;&gt;&lt;span style=&quot;background-color: initial;&quot;&gt;+ countEmptyNode(): int&lt;/span&gt;&lt;/div&gt;&lt;div style=&quot;&quot;&gt;&lt;span style=&quot;background-color: initial;&quot;&gt;+ generateTinyBalls(): void&lt;/span&gt;&lt;/div&gt;&lt;div style=&quot;&quot;&gt;&lt;span style=&quot;background-color: initial;&quot;&gt;+ resizeBall(): void&lt;/span&gt;&lt;/div&gt;&lt;div style=&quot;&quot;&gt;&lt;span style=&quot;background-color: initial;&quot;&gt;+ checkToRemoveBall(): void&lt;/span&gt;&lt;/div&gt;&lt;div style=&quot;&quot;&gt;&lt;div style=&quot;border-color: var(--border-color);&quot;&gt;+ dijkstra(): void&lt;/div&gt;&lt;div style=&quot;border-color: var(--border-color);&quot;&gt;+ renderScore(): void&lt;/div&gt;&lt;div style=&quot;border-color: var(--border-color);&quot;&gt;+ gameOver(): void&lt;/div&gt;&lt;div style=&quot;border-color: var(--border-color);&quot;&gt;+ replay(): void&lt;/div&gt;&lt;/div&gt;&lt;div style=&quot;&quot;&gt;&lt;span style=&quot;background-color: initial;&quot;&gt;+ renderGame(): void&lt;/span&gt;&lt;/div&gt;&lt;div style=&quot;&quot;&gt;&lt;span style=&quot;background-color: initial;&quot;&gt;+ endGame(): void&lt;/span&gt;&lt;/div&gt;&lt;div style=&quot;&quot;&gt;+ handleMoveBall(): void&lt;/div&gt;" style="whiteSpace=wrap;html=1;align=left;" parent="10" vertex="1">
                    <mxGeometry y="290" width="240" height="230" as="geometry"/>
                </mxCell>
                <mxCell id="71" value="1" style="text;html=1;align=center;verticalAlign=middle;resizable=0;points=[];autosize=1;strokeColor=none;fillColor=none;fontSize=9;fontColor=#636363;" parent="1" vertex="1">
                    <mxGeometry x="405" y="150" width="30" height="20" as="geometry"/>
                </mxCell>
                <mxCell id="90" style="edgeStyle=none;html=1;exitX=0.75;exitY=0;exitDx=0;exitDy=0;entryX=1;entryY=0.5;entryDx=0;entryDy=0;dashed=1;endArrow=classic;endFill=1;" parent="1" source="75" target="84" edge="1">
                    <mxGeometry relative="1" as="geometry">
                        <Array as="points">
                            <mxPoint x="819" y="-330"/>
                        </Array>
                    </mxGeometry>
                </mxCell>
                <mxCell id="75" value="&lt;b&gt;Ball&lt;/b&gt;" style="swimlane;fontStyle=0;align=center;verticalAlign=top;childLayout=stackLayout;horizontal=1;startSize=30;horizontalStack=0;resizeParent=1;resizeParentMax=0;resizeLast=0;collapsible=0;marginBottom=0;html=1;" parent="1" vertex="1">
                    <mxGeometry x="639" y="-54" width="240" height="300" as="geometry"/>
                </mxCell>
                <mxCell id="76" value="&lt;div style=&quot;&quot;&gt;- x: int&lt;/div&gt;&lt;div style=&quot;&quot;&gt;- y: int&lt;/div&gt;&lt;div style=&quot;&quot;&gt;- color: int&lt;/div&gt;&lt;div style=&quot;&quot;&gt;- weight: int&lt;/div&gt;" style="whiteSpace=wrap;html=1;align=left;" parent="75" vertex="1">
                    <mxGeometry y="30" width="240" height="110" as="geometry"/>
                </mxCell>
                <mxCell id="77" value="&lt;div style=&quot;&quot;&gt;+ Ball()&lt;/div&gt;&lt;div style=&quot;&quot;&gt;+ ~Ball()&lt;/div&gt;&lt;div style=&quot;&quot;&gt;+ Set_x()&lt;/div&gt;&lt;div style=&quot;&quot;&gt;+ Set_y()&lt;/div&gt;&lt;div style=&quot;&quot;&gt;+ SetColor()&lt;/div&gt;&lt;div style=&quot;&quot;&gt;+ SetWeight()&lt;/div&gt;&lt;div style=&quot;&quot;&gt;+ Render(): void&lt;/div&gt;&lt;div style=&quot;&quot;&gt;+ HandleInputMouse(): void&lt;/div&gt;" style="whiteSpace=wrap;html=1;align=left;" parent="75" vertex="1">
                    <mxGeometry y="140" width="240" height="160" as="geometry"/>
                </mxCell>
                <mxCell id="81" style="edgeStyle=orthogonalEdgeStyle;html=1;exitX=0.996;exitY=0.91;exitDx=0;exitDy=0;fontSize=9;fontColor=#636363;endArrow=diamondThin;endFill=1;strokeWidth=1;startSize=6;endSize=20;exitPerimeter=0;" parent="1" source="21" edge="1">
                    <mxGeometry relative="1" as="geometry">
                        <mxPoint x="409" y="150" as="sourcePoint"/>
                        <mxPoint x="640" y="70" as="targetPoint"/>
                        <Array as="points">
                            <mxPoint x="560" y="20"/>
                            <mxPoint x="560" y="70"/>
                        </Array>
                    </mxGeometry>
                </mxCell>
                <mxCell id="82" value="1" style="text;html=1;align=center;verticalAlign=middle;resizable=0;points=[];autosize=1;strokeColor=none;fillColor=none;fontSize=9;fontColor=#636363;" parent="1" vertex="1">
                    <mxGeometry x="519" width="30" height="20" as="geometry"/>
                </mxCell>
                <mxCell id="83" value="...*" style="text;html=1;align=center;verticalAlign=middle;resizable=0;points=[];autosize=1;strokeColor=none;fillColor=none;fontSize=9;fontColor=#636363;" parent="1" vertex="1">
                    <mxGeometry x="595" y="80" width="30" height="20" as="geometry"/>
                </mxCell>
                <mxCell id="84" value="&lt;b&gt;GameSDL&lt;/b&gt;" style="swimlane;fontStyle=0;align=center;verticalAlign=top;childLayout=stackLayout;horizontal=1;startSize=30;horizontalStack=0;resizeParent=1;resizeParentMax=0;resizeLast=0;collapsible=0;marginBottom=0;html=1;" parent="1" vertex="1">
                    <mxGeometry x="460" y="-540" width="320" height="420" as="geometry"/>
                </mxCell>
                <mxCell id="85" value="&lt;div style=&quot;&quot;&gt;&lt;div style=&quot;border-color: var(--border-color);&quot;&gt;- audioSpecMatch: SDL_AudioSpec&lt;/div&gt;&lt;div style=&quot;border-color: var(--border-color);&quot;&gt;- audioLenMatch: Uint32&lt;/div&gt;&lt;div style=&quot;border-color: var(--border-color);&quot;&gt;- audioBufferMatch: Uint8*&lt;/div&gt;&lt;/div&gt;&lt;div style=&quot;&quot;&gt;- mutexSound: mutex&lt;/div&gt;&lt;div style=&quot;&quot;&gt;- cv: condition_variable&lt;/div&gt;&lt;div style=&quot;&quot;&gt;- matchSoundThreadReady: bool&lt;/div&gt;&lt;div style=&quot;&quot;&gt;- quitMatchSound: bool&lt;/div&gt;&lt;div style=&quot;&quot;&gt;- window: SDL_Window&lt;/div&gt;&lt;div style=&quot;&quot;&gt;- cell: SDL_Texture&lt;/div&gt;&lt;div style=&quot;&quot;&gt;- ballTexture[]: SDL_Texture&lt;/div&gt;&lt;div style=&quot;&quot;&gt;- numberTexture[]: SDL_Texture&lt;/div&gt;&lt;div style=&quot;&quot;&gt;- backgroundTexture: SDL_Texture&lt;/div&gt;&lt;div style=&quot;&quot;&gt;- startButtonTexture: SDL_Texture&lt;/div&gt;&lt;div style=&quot;&quot;&gt;- exitButtonTexture: SDL_Texture&lt;/div&gt;&lt;div style=&quot;&quot;&gt;- headerGameBoardTexture: SDL_Texture&lt;/div&gt;&lt;div style=&quot;&quot;&gt;- replayBtnTexture: SDL_Texture&lt;/div&gt;&lt;div style=&quot;&quot;&gt;- gameOverMenuTexture: SDL_Texture&lt;/div&gt;&lt;div style=&quot;&quot;&gt;- WINDOW_WIDTH: int&lt;/div&gt;&lt;div style=&quot;&quot;&gt;- WINDOW_HEIGHT: int&lt;/div&gt;" style="whiteSpace=wrap;html=1;align=left;" parent="84" vertex="1">
                    <mxGeometry y="30" width="320" height="320" as="geometry"/>
                </mxCell>
                <mxCell id="86" value="&lt;div style=&quot;&quot;&gt;- init(): int&lt;/div&gt;&lt;div style=&quot;&quot;&gt;- LoadTexture(*fileName char, renderer: SDL_Renderer)&lt;/div&gt;&lt;div style=&quot;&quot;&gt;- close(): void&lt;/div&gt;" style="whiteSpace=wrap;html=1;align=left;" parent="84" vertex="1">
                    <mxGeometry y="350" width="320" height="70" as="geometry"/>
                </mxCell>
            </root>
        </mxGraphModel>
    </diagram>
</mxfile>